<?xml version="1.0" standalone="no"?>
<!DOCTYPE svg PUBLIC "-//W3C//DTD SVG 20010904//EN"
 "http://www.w3.org/TR/2001/REC-SVG-20010904/DTD/svg10.dtd">
<svg version="1.0" xmlns="http://www.w3.org/2000/svg"
 width="637.000000pt" height="637.000000pt" viewBox="0 0 637.000000 637.000000"
 preserveAspectRatio="xMidYMid meet">
<metadata>
Created by potrace 1.11, written by Peter Selinger 2001-2013
</metadata>
<g transform="translate(0.000000,637.000000) scale(0.100000,-0.100000)"
fill="#000000" stroke="none">
<path d="M3298 5565 c-2 -2 -21 -5 -43 -7 -82 -10 -135 -57 -122 -109 7 -26
65 -92 111 -125 l29 -21 -12 -64 c-6 -35 -13 -74 -16 -86 -21 -95 -35 -167
-40 -202 -4 -33 -21 -54 -36 -45 -4 2 -55 5 -113 6 -77 2 -106 6 -107 15 -1 7
-2 21 -3 31 -6 59 -43 113 -92 137 -96 45 -295 -11 -406 -114 -39 -37 -49
-104 -22 -147 10 -16 23 -32 28 -35 16 -12 -2 -39 -39 -56 -19 -9 -35 -20 -35
-25 0 -4 -4 -8 -10 -8 -5 0 -34 -16 -64 -35 -52 -33 -94 -46 -82 -26 4 5 3 11
-1 13 -12 5 -73 95 -73 107 0 6 -4 11 -8 11 -4 0 -15 13 -24 28 -9 15 -30 43
-46 62 l-30 34 29 42 c16 24 29 47 29 53 0 6 5 11 12 11 6 0 9 3 6 6 -4 3 0
21 8 40 50 121 -20 204 -146 171 -106 -28 -249 -121 -344 -224 -47 -51 -85
-118 -88 -153 -2 -19 -6 -38 -11 -41 -4 -3 3 -21 16 -40 28 -42 102 -74 224
-94 119 -21 140 -31 166 -79 11 -23 22 -44 23 -48 1 -5 3 -10 4 -13 1 -3 3 -8
5 -12 1 -5 6 -19 12 -33 23 -57 24 -68 6 -79 -10 -6 -14 -11 -10 -11 4 0 -2
-11 -15 -24 -66 -67 -228 -289 -228 -312 0 -8 -4 -14 -10 -14 -5 0 -10 -7 -10
-15 0 -8 -5 -15 -12 -15 -6 0 -9 -3 -5 -6 3 -3 -8 -29 -24 -58 -15 -29 -25
-56 -21 -61 6 -6 -17 -5 -143 10 -22 2 -64 7 -92 11 -40 4 -53 10 -54 22 -7
90 -40 181 -83 226 -33 35 -69 55 -91 51 -11 -2 -26 -4 -32 -4 -17 -1 -93 -70
-93 -85 0 -6 -7 -24 -15 -40 -9 -16 -18 -46 -21 -65 -3 -20 -8 -47 -10 -61
-10 -49 -11 -210 -2 -261 11 -60 50 -127 80 -138 27 -10 90 5 115 28 53 48 86
71 101 71 16 0 157 -85 193 -116 14 -13 14 -21 1 -76 -22 -98 -25 -105 -61
-102 -106 7 -215 -162 -191 -296 14 -74 82 -139 154 -144 36 -3 33 11 40 -183
2 -77 0 -133 -5 -133 -5 0 -11 0 -14 -1 -15 -1 -162 -84 -207 -116 -48 -34
-124 -100 -168 -146 -16 -17 -21 -17 -46 -4 -16 8 -48 17 -71 20 -36 4 -47 0
-74 -24 -25 -23 -32 -37 -34 -76 -2 -26 1 -54 7 -60 6 -7 8 -13 4 -13 -13 0
79 -151 96 -158 4 -2 8 -8 8 -14 0 -15 57 -86 109 -137 74 -72 149 -92 187
-49 33 38 41 69 41 162 0 76 2 91 19 104 18 14 103 56 115 57 16 1 109 50 109
57 0 20 28 6 34 -17 4 -14 18 -51 33 -83 14 -31 25 -60 25 -64 -1 -5 3 -8 10
-8 6 0 9 -3 5 -6 -6 -7 80 -142 116 -181 16 -19 18 -25 7 -38 -7 -8 -9 -15 -5
-15 4 0 2 -7 -5 -15 -18 -21 -40 -104 -30 -110 5 -3 7 -12 3 -20 -11 -29 35
-84 97 -116 59 -31 141 -33 223 -7 l64 21 94 -45 c52 -25 111 -51 132 -59 35
-12 46 -27 30 -43 -5 -4 -9 -26 -9 -49 -6 -181 -5 -178 -68 -176 -95 4 -179
-67 -191 -160 -12 -101 110 -202 286 -236 78 -15 111 -19 170 -19 96 1 135 36
144 129 5 47 -25 102 -93 171 -18 19 -31 38 -28 43 3 4 7 21 10 37 3 16 8 49
12 74 4 25 8 66 8 91 l1 45 55 -13 c30 -7 71 -15 90 -18 19 -3 49 -7 65 -10
17 -3 64 -7 105 -10 127 -9 137 -12 149 -45 5 -17 32 -52 59 -79 76 -76 140
-80 210 -11 21 21 52 63 67 92 15 29 30 57 34 61 4 4 45 17 91 27 99 24 227
67 255 86 18 13 23 8 67 -61 26 -41 47 -76 45 -78 -1 -1 10 -16 26 -32 15 -16
27 -35 27 -42 0 -6 4 -13 8 -15 4 -1 18 -18 31 -36 22 -31 22 -34 7 -57 -9
-14 -14 -25 -11 -25 4 0 -1 -7 -9 -16 -9 -8 -16 -21 -17 -27 0 -7 -3 -21 -5
-32 -31 -133 8 -196 122 -196 66 0 81 3 140 24 48 18 80 35 108 60 11 9 23 17
27 17 25 0 153 165 143 182 -3 5 0 8 7 8 7 0 10 2 7 6 -3 3 -2 20 2 39 10 46
-18 108 -61 130 -32 17 -86 17 -181 -1 -36 -6 -37 -6 -59 42 -12 27 -31 61
-41 77 -11 15 -16 27 -11 27 4 0 3 4 -2 8 -8 6 -56 74 -97 138 -4 7 10 23 35
41 23 17 53 42 67 55 37 36 61 47 85 38 53 -20 147 50 193 143 25 50 45 124
38 142 -2 7 4 27 15 45 18 29 22 31 37 18 21 -18 73 -39 212 -84 58 -19 113
-39 122 -44 10 -6 26 -10 36 -10 27 0 32 -9 20 -39 -14 -36 -21 -87 -20 -145
2 -118 123 -138 224 -36 21 21 38 42 38 48 0 6 4 12 8 14 14 5 82 138 82 159
0 10 4 19 8 19 4 0 14 21 21 47 8 27 15 53 17 58 42 139 42 309 0 337 -7 5 -7
8 -1 8 6 0 -3 9 -20 20 -41 27 -85 25 -130 -6 -47 -32 -54 -38 -94 -97 l-32
-48 -32 20 c-107 65 -148 85 -219 104 -58 16 -78 26 -78 39 0 9 4 19 8 22 7 4
31 88 37 126 0 3 4 11 8 18 5 6 5 17 2 22 -3 6 -2 10 2 10 5 0 10 8 11 18 5
50 9 55 42 57 24 2 42 12 57 32 13 15 28 34 34 41 5 6 7 12 3 12 -3 0 -1 6 5
14 16 19 22 49 25 124 1 36 -2 62 -7 62 -6 0 -7 3 -4 6 10 10 -31 62 -56 70
-12 4 -34 7 -48 5 -32 -3 -35 4 -38 98 -2 71 -1 75 29 102 17 16 35 29 40 29
4 0 10 4 12 8 2 5 30 28 63 52 33 23 77 59 97 78 l37 35 43 -20 c53 -25 77
-18 101 30 30 60 20 212 -20 312 -45 109 -126 161 -196 123 -41 -21 -54 -44
-62 -106 -2 -15 -4 -27 -5 -27 -1 0 -2 -29 -3 -65 l-2 -65 -45 -21 c-25 -12
-48 -20 -52 -17 -5 2 -8 -1 -8 -6 0 -6 -7 -11 -14 -11 -8 0 -36 -11 -61 -25
-37 -19 -50 -22 -59 -12 -7 6 -13 16 -13 20 -1 9 -19 57 -38 102 -34 80 -77
185 -77 189 1 11 -122 244 -147 280 l-27 39 46 88 c26 48 54 95 64 104 9 9 16
20 16 25 0 14 117 128 148 144 34 17 65 24 142 32 93 8 118 38 96 117 -5 15
-12 27 -17 27 -5 0 -8 4 -6 9 7 29 -109 133 -275 248 -80 56 -176 61 -179 10
-3 -47 3 -82 20 -116 6 -11 15 -29 20 -40 9 -18 -29 -73 -132 -191 -12 -14
-40 -50 -62 -80 -22 -30 -45 -61 -52 -68 -7 -8 -18 -22 -23 -33 -15 -28 -29
-23 -83 25 l-48 44 -4 78 c-5 140 -75 221 -179 208 -47 -6 -63 -14 -99 -52
l-29 -30 -56 25 c-107 48 -142 62 -149 62 -13 -1 -20 25 -16 60 2 20 6 83 8
141 2 58 4 107 5 110 1 3 2 19 2 35 0 48 13 61 95 95 126 51 142 60 159 84 58
89 -19 168 -201 206 -52 11 -268 23 -277 15z m-366 -869 c3 -13 0 -39 -6 -57
-8 -26 -19 -37 -46 -45 -39 -13 -48 -11 -33 8 16 21 13 52 -9 78 -11 14 -16
19 -12 11 5 -9 3 -12 -4 -7 -16 10 -15 29 1 23 6 -2 20 -1 30 2 10 4 31 8 47
9 22 2 29 -3 32 -22z m-49 -430 c18 -17 24 -30 20 -45 -8 -31 -21 -22 -43 27
-22 48 -15 53 23 18z m191 -347 c-4 -8 1 -9 17 -5 20 6 21 5 7 -4 -10 -6 -18
-17 -18 -25 0 -19 -63 -57 -72 -42 -3 6 -4 15 -2 19 3 4 1 8 -4 8 -5 0 -9 7
-9 15 0 16 24 28 38 19 5 -3 16 2 25 10 18 18 28 21 18 5z m1241 -719 c1 -102
5 -99 -142 -98 -132 0 -257 -7 -271 -16 -15 -9 -68 23 -85 53 -21 37 -41 32
163 35 74 2 146 6 160 11 24 8 50 28 50 40 0 12 28 35 32 26 2 -4 14 -12 28
-16 22 -7 23 -6 11 9 -12 14 -12 16 3 10 9 -3 16 -1 16 6 0 6 8 10 17 8 13 -2
17 -15 18 -68z m-170 -614 c-6 -28 -3 -36 13 -45 11 -6 22 -8 24 -5 3 3 49 7
101 9 90 5 98 4 121 -19 15 -13 26 -34 26 -48 0 -23 -3 -24 -72 -26 -40 -1
-91 -5 -113 -8 -73 -12 -141 -9 -157 7 -51 50 -34 149 25 153 14 0 23 4 20 9
-2 4 1 7 7 7 7 0 9 -12 5 -34z m-522 -275 c9 -15 14 -31 10 -35 -3 -3 -1 -6 5
-6 7 0 12 -9 12 -19 0 -11 4 -21 10 -23 5 -1 11 -15 12 -30 1 -16 5 -28 8 -28
9 0 29 -63 26 -83 -1 -10 -4 -17 -7 -16 -13 6 -49 -25 -49 -42 0 -11 -4 -17
-10 -14 -5 3 -10 13 -10 21 0 8 -12 33 -26 56 -14 23 -27 46 -28 52 -1 6 -10
26 -19 44 -10 17 -14 32 -10 32 5 0 2 4 -5 9 -8 5 -15 20 -15 34 -1 14 -5 23
-9 20 -5 -2 -8 3 -8 11 0 11 9 14 35 12 19 -1 35 2 35 6 0 5 5 6 12 2 8 -5 9
-2 5 9 -10 28 7 19 26 -12z m-280 -733 c104 -41 101 -54 -13 -63 -144 -12
-419 -3 -450 15 -12 8 -12 9 -1 10 8 0 54 18 103 41 146 67 183 67 361 -3z
m-25 -282 c-10 -7 -15 -16 -12 -19 3 -3 -8 -13 -24 -21 -29 -15 -33 -14 -71 6
-22 12 -39 23 -37 26 3 2 22 6 43 9 21 3 39 6 40 7 1 1 19 3 40 4 34 2 36 0
21 -12z"/>
<path d="M3613 2105 c0 -8 4 -12 9 -9 5 3 6 10 3 15 -9 13 -12 11 -12 -6z"/>
<path d="M3639 2088 c-11 -8 -11 -9 1 -5 8 2 25 0 38 -4 13 -5 21 -5 18 0 -9
14 -43 19 -57 9z"/>
</g>
</svg>
